<svg width="300" height="301" viewBox="0 0 300 301" fill="none" xmlns="http://www.w3.org/2000/svg">
<path d="M19.0381 19.0381C0 38.0761 0 68.7174 0 130V175.807C0 231.48 0 259.317 15.9384 277.656C17.9273 279.945 20.0739 282.091 22.3625 284.08C40.7023 300.019 68.5387 300.019 124.212 300.019C136.265 300.019 147.397 300.019 157.7 299.938C154.964 299.199 152.249 298.401 149.556 297.546C129.723 291.246 115.373 284.363 106.506 276.896V191.146C113.506 199.779 122.839 207.479 134.506 214.246C146.406 220.779 159.006 225.913 172.306 229.646C185.606 233.379 197.739 235.246 208.706 235.246C223.873 235.246 231.456 231.979 231.456 225.446C231.456 223.113 230.523 221.363 228.656 220.196C227.023 218.796 223.756 217.513 218.856 216.346C214.189 215.179 206.489 213.546 195.756 211.446L177.206 207.946C129.139 198.846 105.106 173.763 105.106 132.696C105.106 116.363 109.306 101.546 117.706 88.2459C126.339 74.9459 138.939 64.3292 155.506 56.3959C172.073 48.4626 191.906 44.4959 215.006 44.4959C232.273 44.4959 248.606 46.7126 264.006 51.1459C277.529 54.779 289.045 59.1105 298.552 64.1403C296.77 45.3393 292.823 32.4222 284.08 22.3625C282.091 20.0739 279.945 17.9273 277.656 15.9384C259.317 0 231.48 0 175.807 0H130C68.7174 0 38.0761 0 19.0381 19.0381Z" fill="#B68052"/>
<path d="M300 145.407C292.542 138.075 281.827 131.738 267.856 126.396C251.989 120.096 235.189 116.946 217.456 116.946C201.356 116.946 193.306 119.746 193.306 125.346C193.306 127.446 194.123 129.079 195.756 130.246C197.623 131.413 201.473 132.696 207.306 134.096C213.139 135.263 220.373 136.663 229.006 138.296L247.556 141.796C269.302 145.831 286.74 153.421 299.87 164.564C299.944 158.488 299.981 152.109 300 145.407Z" fill="#B68052"/>
</svg>
